<?xml version="1.0" standalone="no"?>
<!DOCTYPE svg PUBLIC "-//W3C//DTD SVG 20010904//EN"
 "http://www.w3.org/TR/2001/REC-SVG-20010904/DTD/svg10.dtd">
<svg version="1.0" xmlns="http://www.w3.org/2000/svg"
 width="1024.000000pt" height="1024.000000pt" viewBox="0 0 1024.000000 1024.000000"
 preserveAspectRatio="xMidYMid meet">

<g transform="translate(0.000000,1024.000000) scale(0.100000,-0.100000)"
fill="#000000" stroke="none">
<path d="M5858 6879 c-5 -3 -8 -30 -6 -60 l3 -54 90 -6 c50 -3 102 -11 117
-17 46 -19 105 -80 129 -135 l24 -52 3 -1235 c3 -1107 1 -1245 -14 -1335 -53
-321 -215 -516 -488 -585 -44 -11 -98 -20 -120 -20 -60 0 -68 -9 -64 -71 l3
-54 100 2 c478 9 845 255 980 657 54 162 55 174 55 1420 0 800 3 1169 11 1213
13 74 50 130 116 177 36 25 54 30 130 35 l88 6 0 58 0 58 -573 2 c-316 1 -578
-1 -584 -4z"/>
<path d="M3104 6867 c-3 -8 -4 -34 -2 -58 l3 -44 90 -6 c50 -3 106 -12 125
-21 48 -21 99 -73 124 -128 21 -45 21 -52 24 -1225 2 -829 -1 -1193 -8 -1225
-16 -64 -52 -115 -107 -146 -40 -24 -61 -29 -147 -33 l-101 -6 0 -55 0 -55
609 -3 c361 -1 612 2 615 7 3 5 6 31 6 58 l0 48 -110 6 c-60 3 -119 9 -130 14
-53 22 -103 67 -130 117 l-30 53 -3 503 -3 502 270 0 c377 0 541 19 721 82
315 111 523 329 585 611 25 113 17 345 -15 437 -43 127 -105 224 -202 316
-126 121 -264 189 -478 236 -91 21 -126 22 -898 25 -690 3 -803 2 -808 -10z
m1353 -138 c287 -39 484 -211 552 -479 28 -110 35 -233 21 -337 -36 -253 -149
-423 -344 -518 -140 -69 -190 -77 -493 -82 l-263 -5 0 716 0 716 224 0 c124 0
260 -5 303 -11z"/>
</g>
</svg>
